<?xml version="1.0" encoding="iso-8859-1"?>
<!-- Generator: Adobe Illustrator 19.0.0, SVG Export Plug-In . SVG Version: 6.00 Build 0)  -->
<svg version="1.1" id="Layer_1" xmlns="http://www.w3.org/2000/svg" xmlns:xlink="http://www.w3.org/1999/xlink" x="0px" y="0px"
	 viewBox="0 0 512.003 512.003" style="enable-background:new 0 0 512.003 512.003;" xml:space="preserve">
<g>
	<path style="fill:#F0CE17;" d="M512.001,256c0-141.383-114.617-256-256-256s-256,114.617-256,256s114.617,256,256,256
		S512.001,397.383,512.001,256"/>
	<g>
		<path style="fill:#064E9A;" d="M79.45,256c0-97.342,79.207-176.552,176.552-176.552S432.553,158.658,432.553,256
			s-79.207,176.552-176.552,176.552S79.45,353.342,79.45,256z M450.208,256c0-107.093-87.111-194.207-194.207-194.207
			S61.794,148.907,61.794,256s87.111,194.207,194.207,194.207S450.208,363.093,450.208,256z"/>
		<path style="fill:#064E9A;" d="M2.484,291.31h71.601c-2.216-11.441-3.46-23.225-3.46-35.31s1.245-23.87,3.46-35.31H2.484
			C0.886,232.236,0.003,244.012,0.003,256S0.886,279.764,2.484,291.31"/>
		<path style="fill:#064E9A;" d="M53.698,99.219l50.591,50.591c13.639-19.43,30.87-36.105,50.776-49.09l-50.847-50.847
			C85.186,63.908,68.193,80.539,53.698,99.219"/>
		<path style="fill:#064E9A;" d="M256.001,0c-11.988,0-23.764,0.892-35.31,2.481V74.09c11.441-2.225,23.225-3.469,35.31-3.469
			c12.085,0,23.87,1.245,35.31,3.469V2.481C279.765,0.892,267.989,0,256.001,0"/>
		<path style="fill:#064E9A;" d="M409.287,50.95l-50.741,50.741c19.756,13.18,36.837,30.031,50.282,49.593l50.617-50.617
			C445.083,81.882,428.213,65.118,409.287,50.95"/>
		<path style="fill:#064E9A;" d="M441.381,256c0,12.085-1.245,23.87-3.469,35.31h71.609c1.589-11.546,2.481-23.322,2.481-35.31
			s-0.892-23.764-2.481-35.31h-71.609C440.136,232.13,441.381,243.915,441.381,256"/>
		<path style="fill:#064E9A;" d="M411.284,356.933c-12.985,19.906-29.661,37.146-49.09,50.785l50.591,50.582
			c18.67-14.495,35.302-31.479,49.346-50.52L411.284,356.933z"/>
		<path style="fill:#064E9A;" d="M220.691,437.913v71.601c11.546,1.598,23.322,2.489,35.31,2.489c11.988,0,23.764-0.892,35.31-2.489
			v-71.601c-11.441,2.216-23.225,3.469-35.31,3.469C243.916,441.382,232.132,440.128,220.691,437.913"/>
		<path style="fill:#064E9A;" d="M101.696,358.541l-50.741,50.741c14.168,18.935,30.932,35.796,49.717,50.158l50.617-50.617
			C131.727,395.379,114.867,378.297,101.696,358.541"/>
		<path style="fill:#064E9A;" d="M353.105,264.828c4.875,0,8.828-3.952,8.828-8.828s-3.952-8.828-8.828-8.828H158.898
			c-4.875,0-8.828,3.952-8.828,8.828s3.952,8.828,8.828,8.828H353.105z"/>
		<path style="fill:#064E9A;" d="M264.829,158.897c0-4.875-3.952-8.828-8.828-8.828c-4.875,0-8.828,3.952-8.828,8.828v194.207
			c0,4.875,3.952,8.828,8.828,8.828c4.875,0,8.828-3.952,8.828-8.828V158.897z"/>
	</g>
</g>
<g>
</g>
<g>
</g>
<g>
</g>
<g>
</g>
<g>
</g>
<g>
</g>
<g>
</g>
<g>
</g>
<g>
</g>
<g>
</g>
<g>
</g>
<g>
</g>
<g>
</g>
<g>
</g>
<g>
</g>
</svg>
