<?xml version="1.0" encoding="iso-8859-1"?>
<!-- Generator: Adobe Illustrator 19.0.0, SVG Export Plug-In . SVG Version: 6.00 Build 0)  -->
<svg version="1.1" id="Layer_1" xmlns="http://www.w3.org/2000/svg" xmlns:xlink="http://www.w3.org/1999/xlink" x="0px" y="0px"
	 viewBox="0 0 512.003 512.003" style="enable-background:new 0 0 512.003 512.003;" xml:space="preserve">
<g>
	<path d="M512.001,256c0-141.383-114.617-256-256-256s-256,114.617-256,256s114.617,256,256,256S512.001,397.383,512.001,256"/>
	<g>
		<path style="fill:#F3FBFF;" d="M256.001,79.448C158.651,79.448,79.45,158.649,79.45,256s79.201,176.552,176.552,176.552
			S432.553,353.351,432.553,256S353.352,79.448,256.001,79.448 M256.001,450.207c-107.087,0-194.207-87.119-194.207-194.207
			S148.914,61.793,256.001,61.793S450.208,148.913,450.208,256S363.089,450.207,256.001,450.207"/>
		<path style="fill:#F3FBFF;" d="M2.485,291.31h71.601c-2.216-11.441-3.46-23.225-3.46-35.31s1.245-23.87,3.46-35.31H2.485
			C0.887,232.236,0.004,244.012,0.004,256S0.887,279.764,2.485,291.31"/>
		<path style="fill:#F3FBFF;" d="M53.698,99.219l50.591,50.591c13.639-19.43,30.879-36.105,50.776-49.09l-50.838-50.847
			C85.186,63.908,68.193,80.539,53.698,99.219"/>
		<path style="fill:#F3FBFF;" d="M256.001,0c-11.988,0-23.764,0.892-35.31,2.481V74.09c11.441-2.225,23.225-3.469,35.31-3.469
			c12.085,0,23.87,1.245,35.31,3.469V2.481C279.765,0.892,267.989,0,256.001,0"/>
		<path style="fill:#F3FBFF;" d="M409.287,50.95l-50.741,50.741c19.756,13.18,36.837,30.031,50.282,49.593l50.617-50.617
			C445.083,81.882,428.213,65.118,409.287,50.95"/>
		<path style="fill:#F3FBFF;" d="M441.381,256c0,12.085-1.245,23.87-3.469,35.31h71.609c1.589-11.546,2.481-23.322,2.481-35.31
			s-0.892-23.764-2.481-35.31h-71.609C440.136,232.13,441.381,243.915,441.381,256"/>
		<path style="fill:#F3FBFF;" d="M411.284,356.933c-12.985,19.906-29.661,37.146-49.09,50.785l50.591,50.582
			c18.67-14.495,35.302-31.479,49.346-50.52L411.284,356.933z"/>
		<path style="fill:#F3FBFF;" d="M220.691,437.913v71.601c11.546,1.598,23.322,2.489,35.31,2.489c11.988,0,23.764-0.892,35.31-2.489
			v-71.601c-11.441,2.216-23.225,3.469-35.31,3.469C243.916,441.382,232.132,440.128,220.691,437.913"/>
		<path style="fill:#F3FBFF;" d="M101.696,358.541l-50.741,50.741c14.168,18.935,30.932,35.796,49.717,50.158l50.617-50.617
			C131.727,395.379,114.867,378.297,101.696,358.541"/>
		<path style="fill:#F3FBFF;" d="M150.07,353.103c-4.882,0-8.828-3.946-8.828-8.828V167.724c0-4.882,3.946-8.828,8.828-8.828
			s8.828,3.946,8.828,8.828v176.552C158.898,349.158,154.952,353.103,150.07,353.103"/>
		<path style="fill:#F3FBFF;" d="M176.553,353.103h-52.966c-4.882,0-8.828-3.946-8.828-8.828c0-4.882,3.946-8.828,8.828-8.828
			h52.966c4.882,0,8.828,3.946,8.828,8.828C185.381,349.158,181.435,353.103,176.553,353.103"/>
		<path style="fill:#F3FBFF;" d="M105.924,229.517c-1.995,0-3.99-0.671-5.65-2.039c-3.734-3.125-4.246-8.695-1.13-12.447
			l44.138-52.966c3.125-3.734,8.686-4.246,12.447-1.13c3.734,3.125,4.246,8.695,1.13,12.447l-44.138,52.966
			C110.964,228.44,108.457,229.517,105.924,229.517"/>
		<path style="fill:#F3FBFF;" d="M238.346,176.552c-19.474,0-35.31,15.722-35.31,35.054v88.903c0,19.271,15.837,34.94,35.31,34.94
			s35.31-15.669,35.31-34.94v-88.903C273.656,192.274,257.82,176.552,238.346,176.552 M238.346,353.103
			c-29.21,0-52.966-23.596-52.966-52.595v-88.903c0-29.06,23.755-52.71,52.966-52.71s52.966,23.649,52.966,52.71v88.903
			C291.312,329.507,267.557,353.103,238.346,353.103"/>
		<path style="fill:#F3FBFF;" d="M353.105,176.552c-19.474,0-35.31,15.722-35.31,35.054v88.903c0,19.271,15.837,34.94,35.31,34.94
			s35.31-15.669,35.31-34.94v-88.903C388.415,192.274,372.578,176.552,353.105,176.552 M353.105,353.103
			c-29.21,0-52.966-23.596-52.966-52.595v-88.903c0-29.06,23.755-52.71,52.966-52.71c29.21,0,52.966,23.649,52.966,52.71v88.903
			C406.07,329.507,382.315,353.103,353.105,353.103"/>
	</g>
</g>
<g>
</g>
<g>
</g>
<g>
</g>
<g>
</g>
<g>
</g>
<g>
</g>
<g>
</g>
<g>
</g>
<g>
</g>
<g>
</g>
<g>
</g>
<g>
</g>
<g>
</g>
<g>
</g>
<g>
</g>
</svg>
