<?xml version="1.0" encoding="iso-8859-1"?>
<!-- Generator: Adobe Illustrator 19.0.0, SVG Export Plug-In . SVG Version: 6.00 Build 0)  -->
<svg version="1.1" id="Layer_1" xmlns="http://www.w3.org/2000/svg" xmlns:xlink="http://www.w3.org/1999/xlink" x="0px" y="0px"
	 viewBox="0 0 505.769 505.769" style="enable-background:new 0 0 505.769 505.769;" xml:space="preserve">
<g>
	<path style="fill:#DAE1E5;" d="M500.316,179.21L335.871,14.765c-7.27-7.27-19.065-7.27-26.335,0L145.091,179.21
		c-7.27,7.27-7.27,19.056,0,26.326l27.462,27.462l2.802,2.802h66.681c10.287,0,18.618,8.341,18.618,18.618v66.681l1.834,1.834
		l47.048,47.057c7.27,7.27,19.065,7.27,26.335,0l164.445-164.454C507.587,198.265,507.587,186.48,500.316,179.21"/>
	<path style="fill:#E6EEF4;" d="M242.036,496.457H18.618C8.332,496.457,0,488.125,0,477.839V254.421
		c0-10.287,8.332-18.618,18.618-18.618h223.418c10.287,0,18.618,8.332,18.618,18.618v223.418
		C260.655,488.125,252.323,496.457,242.036,496.457"/>
	<g>
		<path d="M74.473,319.584H55.855c-5.139,0-9.309-4.171-9.309-9.309v-18.618c0-5.139,4.17-9.309,9.309-9.309h18.618
			c5.139,0,9.309,4.17,9.309,9.309v18.618C83.782,315.414,79.611,319.584,74.473,319.584"/>
		<path d="M204.8,319.584h-18.618c-5.139,0-9.309-4.171-9.309-9.309v-18.618c0-5.139,4.17-9.309,9.309-9.309H204.8
			c5.139,0,9.309,4.17,9.309,9.309v18.618C214.109,315.414,209.939,319.584,204.8,319.584"/>
		<path d="M342.336,100.219l-13.163,13.163c-3.64,3.64-9.533,3.64-13.163,0l-13.172-13.163c-3.631-3.64-3.631-9.533,0-13.163
			l13.172-13.163c3.631-3.64,9.523-3.64,13.163,0l13.163,13.163C345.976,90.687,345.976,96.579,342.336,100.219"/>
		<path d="M342.336,192.374l-13.163,13.163c-3.64,3.64-9.533,3.64-13.163,0l-13.172-13.163c-3.631-3.64-3.631-9.533,0-13.163
			l13.172-13.163c3.631-3.64,9.523-3.64,13.163,0l13.163,13.163C345.976,182.841,345.976,188.734,342.336,192.374"/>
		<path d="M342.336,297.695l-13.163,13.163c-3.64,3.64-9.533,3.64-13.163,0l-13.172-13.163c-3.631-3.64-3.631-9.533,0-13.163
			l13.172-13.163c3.631-3.64,9.523-3.64,13.163,0l13.163,13.163C345.976,288.162,345.976,294.055,342.336,297.695"/>
		<path d="M204.8,449.912h-18.618c-5.139,0-9.309-4.171-9.309-9.309v-18.618c0-5.139,4.17-9.309,9.309-9.309H204.8
			c5.139,0,9.309,4.17,9.309,9.309v18.618C214.109,445.741,209.939,449.912,204.8,449.912"/>
		<path d="M74.473,449.912H55.855c-5.139,0-9.309-4.171-9.309-9.309v-18.618c0-5.139,4.17-9.309,9.309-9.309h18.618
			c5.139,0,9.309,4.17,9.309,9.309v18.618C83.782,445.741,79.611,449.912,74.473,449.912"/>
		<path d="M139.636,384.748h-18.618c-5.139,0-9.309-4.171-9.309-9.309v-18.618c0-5.139,4.17-9.309,9.309-9.309h18.618
			c5.139,0,9.309,4.17,9.309,9.309v18.618C148.945,380.577,144.775,384.748,139.636,384.748"/>
	</g>
</g>
<g>
</g>
<g>
</g>
<g>
</g>
<g>
</g>
<g>
</g>
<g>
</g>
<g>
</g>
<g>
</g>
<g>
</g>
<g>
</g>
<g>
</g>
<g>
</g>
<g>
</g>
<g>
</g>
<g>
</g>
</svg>
