<?xml version="1.0" encoding="iso-8859-1"?>
<!-- Generator: Adobe Illustrator 19.0.0, SVG Export Plug-In . SVG Version: 6.00 Build 0)  -->
<svg version="1.1" id="Layer_1" xmlns="http://www.w3.org/2000/svg" xmlns:xlink="http://www.w3.org/1999/xlink" x="0px" y="0px"
	 viewBox="0 0 512 512" style="enable-background:new 0 0 512 512;" xml:space="preserve">
<g>
	<polygon style="fill:#E6EEF4;" points="0,498.757 141.241,498.757 141.241,357.515 0,357.515 	"/>
	<g>
		<path d="M44.138,392.826c0-4.873-3.955-8.828-8.828-8.828s-8.828,3.955-8.828,8.828c0,4.873,3.955,8.828,8.828,8.828
			S44.138,397.699,44.138,392.826"/>
		<path d="M114.759,392.826c0-4.873-3.955-8.828-8.828-8.828c-4.873,0-8.828,3.955-8.828,8.828c0,4.873,3.955,8.828,8.828,8.828
			C110.804,401.653,114.759,397.699,114.759,392.826"/>
		<path d="M44.138,463.447c0-4.873-3.955-8.828-8.828-8.828s-8.828,3.955-8.828,8.828s3.955,8.828,8.828,8.828
			S44.138,468.319,44.138,463.447"/>
		<path d="M114.759,463.447c0-4.873-3.955-8.828-8.828-8.828c-4.873,0-8.828,3.955-8.828,8.828s3.955,8.828,8.828,8.828
			C110.804,472.274,114.759,468.319,114.759,463.447"/>
	</g>
	<polygon style="fill:#DAE1E5;" points="61.793,357.515 203.034,357.515 203.034,216.274 61.793,216.274 	"/>
	<g>
		<path d="M105.931,251.584c0-4.873-3.955-8.828-8.828-8.828s-8.828,3.955-8.828,8.828s3.955,8.828,8.828,8.828
			S105.931,256.457,105.931,251.584"/>
		<path d="M141.241,286.895c0-4.873-3.955-8.828-8.828-8.828c-4.873,0-8.828,3.955-8.828,8.828s3.955,8.828,8.828,8.828
			C137.287,295.722,141.241,291.768,141.241,286.895"/>
		<path d="M176.552,322.205c0-4.873-3.955-8.828-8.828-8.828s-8.828,3.955-8.828,8.828c0,4.873,3.955,8.828,8.828,8.828
			S176.552,327.078,176.552,322.205"/>
	</g>
	<polygon style="fill:#E6EEF4;" points="8.828,216.274 150.069,216.274 150.069,75.033 8.828,75.033 	"/>
	<path d="M88.276,145.653c0-4.873-3.955-8.828-8.828-8.828c-4.873,0-8.828,3.955-8.828,8.828c0,4.873,3.955,8.828,8.828,8.828
		C84.321,154.481,88.276,150.526,88.276,145.653"/>
	<polygon style="fill:#E6EEF4;" points="326.621,212.985 226.745,113.11 326.621,13.243 426.496,113.11 	"/>
	<g>
		<path d="M332.863,69.418c3.452-3.452,3.452-9.039,0-12.482c-3.452-3.452-9.039-3.452-12.482,0c-3.452,3.443-3.452,9.031,0,12.482
			C323.823,72.87,329.411,72.87,332.863,69.418"/>
		<path d="M382.799,119.355c3.452-3.452,3.452-9.039,0-12.482c-3.452-3.452-9.039-3.452-12.482,0c-3.452,3.443-3.452,9.031,0,12.482
			C373.76,122.807,379.348,122.807,382.799,119.355"/>
		<path d="M282.927,119.355c3.452-3.452,3.452-9.039,0-12.482c-3.452-3.452-9.039-3.452-12.482,0c-3.452,3.443-3.452,9.031,0,12.482
			C273.887,122.807,279.475,122.807,282.927,119.355"/>
		<path d="M307.895,144.322c3.452-3.452,3.452-9.039,0-12.482c-3.452-3.452-9.039-3.452-12.482,0c-3.452,3.443-3.452,9.031,0,12.482
			C298.855,147.774,304.443,147.774,307.895,144.322"/>
		<path d="M357.831,94.386c3.452-3.452,3.452-9.039,0-12.482c-3.452-3.452-9.039-3.452-12.482,0c-3.452,3.443-3.452,9.031,0,12.482
			C348.791,97.838,354.379,97.838,357.831,94.386"/>
		<path d="M332.863,169.29c3.452-3.452,3.452-9.039,0-12.482c-3.452-3.452-9.039-3.452-12.482,0c-3.452,3.443-3.452,9.031,0,12.482
			C323.823,172.742,329.411,172.742,332.863,169.29"/>
	</g>
	<polygon style="fill:#E6EEF4;" points="335.448,498.757 476.69,498.757 476.69,357.515 335.448,357.515 	"/>
	<g>
		<path d="M379.586,392.826c0-4.873-3.955-8.828-8.828-8.828c-4.873,0-8.828,3.955-8.828,8.828c0,4.873,3.955,8.828,8.828,8.828
			C375.631,401.653,379.586,397.699,379.586,392.826"/>
		<path d="M450.207,392.826c0-4.873-3.955-8.828-8.828-8.828s-8.828,3.955-8.828,8.828c0,4.873,3.955,8.828,8.828,8.828
			S450.207,397.699,450.207,392.826"/>
		<path d="M379.586,463.447c0-4.873-3.955-8.828-8.828-8.828c-4.873,0-8.828,3.955-8.828,8.828s3.955,8.828,8.828,8.828
			C375.631,472.274,379.586,468.319,379.586,463.447"/>
		<path d="M414.897,428.136c0-4.873-3.955-8.828-8.828-8.828s-8.828,3.955-8.828,8.828s3.955,8.828,8.828,8.828
			S414.897,433.009,414.897,428.136"/>
		<path d="M450.207,463.447c0-4.873-3.955-8.828-8.828-8.828s-8.828,3.955-8.828,8.828s3.955,8.828,8.828,8.828
			S450.207,468.319,450.207,463.447"/>
	</g>
	<polygon style="fill:#DAE1E5;" points="370.759,357.515 512,357.515 512,216.274 370.759,216.274 	"/>
	<g>
		<path d="M414.897,251.584c0-4.873-3.955-8.828-8.828-8.828s-8.828,3.955-8.828,8.828s3.955,8.828,8.828,8.828
			S414.897,256.457,414.897,251.584"/>
		<path d="M485.517,322.205c0-4.873-3.955-8.828-8.828-8.828c-4.873,0-8.828,3.955-8.828,8.828c0,4.873,3.955,8.828,8.828,8.828
			C481.562,331.033,485.517,327.078,485.517,322.205"/>
	</g>
</g>
<g>
</g>
<g>
</g>
<g>
</g>
<g>
</g>
<g>
</g>
<g>
</g>
<g>
</g>
<g>
</g>
<g>
</g>
<g>
</g>
<g>
</g>
<g>
</g>
<g>
</g>
<g>
</g>
<g>
</g>
</svg>
