<?xml version="1.0" encoding="iso-8859-1"?>
<!-- Generator: Adobe Illustrator 19.0.0, SVG Export Plug-In . SVG Version: 6.00 Build 0)  -->
<svg version="1.1" id="Layer_1" xmlns="http://www.w3.org/2000/svg" xmlns:xlink="http://www.w3.org/1999/xlink" x="0px" y="0px"
	 viewBox="0 0 512 512" style="enable-background:new 0 0 512 512;" xml:space="preserve">
<g>
	<polygon style="fill:#E5CFAE;" points="232.296,284.444 232.296,398.222 232.296,426.667 232.296,455.111 52.148,455.111 
		52.148,512 507.259,512 507.259,284.444 	"/>
	<polygon style="fill:#FDECCD;" points="4.741,455.111 232.296,455.111 232.296,0 4.741,0 	"/>
	<g>
		<polygon points="4.741,218.074 4.741,237.037 232.296,237.037 232.296,218.074 		"/>
		<path d="M52.148,66.37c0,10.477,8.486,18.963,18.963,18.963c10.477,0,18.963-8.486,18.963-18.963s-8.486-18.963-18.963-18.963
			C60.634,47.407,52.148,55.893,52.148,66.37"/>
		<path d="M146.963,161.185c0,10.477,8.486,18.963,18.963,18.963c10.477,0,18.963-8.486,18.963-18.963
			c0-10.477-8.486-18.963-18.963-18.963C155.449,142.222,146.963,150.708,146.963,161.185"/>
		<path d="M52.148,293.926c0,10.477,8.486,18.963,18.963,18.963c10.477,0,18.963-8.486,18.963-18.963
			c0-10.477-8.486-18.963-18.963-18.963C60.634,274.963,52.148,283.449,52.148,293.926"/>
		<path d="M99.556,341.333c0,10.477,8.486,18.963,18.963,18.963c10.477,0,18.963-8.486,18.963-18.963
			c0-10.477-8.486-18.963-18.963-18.963C108.041,322.37,99.556,330.856,99.556,341.333"/>
		<path d="M52.148,388.741c0,10.477,8.486,18.963,18.963,18.963c10.477,0,18.963-8.486,18.963-18.963
			c0-10.477-8.486-18.963-18.963-18.963C60.634,369.778,52.148,378.264,52.148,388.741"/>
		<path d="M146.963,388.741c0,10.477,8.486,18.963,18.963,18.963c10.477,0,18.963-8.486,18.963-18.963
			c0-10.477-8.486-18.963-18.963-18.963C155.449,369.778,146.963,378.264,146.963,388.741"/>
		<path d="M146.963,293.926c0,10.477,8.486,18.963,18.963,18.963c10.477,0,18.963-8.486,18.963-18.963
			c0-10.477-8.486-18.963-18.963-18.963C155.449,274.963,146.963,283.449,146.963,293.926"/>
		<polygon points="289.185,284.444 270.222,284.444 270.222,512 289.185,512 		"/>
		<path d="M440.889,331.852c-10.477,0-18.963,8.486-18.963,18.963s8.486,18.963,18.963,18.963c10.477,0,18.963-8.486,18.963-18.963
			S451.366,331.852,440.889,331.852"/>
		<path d="M346.074,426.667c-10.477,0-18.963,8.486-18.963,18.963c0,10.477,8.486,18.963,18.963,18.963
			c10.477,0,18.963-8.486,18.963-18.963C365.037,435.153,356.551,426.667,346.074,426.667"/>
		<path d="M393.481,379.259c-10.477,0-18.963,8.486-18.963,18.963c0,10.477,8.486,18.963,18.963,18.963
			c10.477,0,18.963-8.486,18.963-18.963C412.444,387.745,403.959,379.259,393.481,379.259"/>
	</g>
</g>
<g>
</g>
<g>
</g>
<g>
</g>
<g>
</g>
<g>
</g>
<g>
</g>
<g>
</g>
<g>
</g>
<g>
</g>
<g>
</g>
<g>
</g>
<g>
</g>
<g>
</g>
<g>
</g>
<g>
</g>
</svg>
