<?xml version="1.0" encoding="iso-8859-1"?>
<!-- Generator: Adobe Illustrator 19.0.0, SVG Export Plug-In . SVG Version: 6.00 Build 0)  -->
<svg version="1.1" id="Layer_1" xmlns="http://www.w3.org/2000/svg" xmlns:xlink="http://www.w3.org/1999/xlink" x="0px" y="0px"
	 viewBox="0 0 512 512" style="enable-background:new 0 0 512 512;" xml:space="preserve">
<g>
	<path style="fill:#E6EEF4;" d="M423.724,0H88.276c-9.754,0-17.655,7.901-17.655,17.655v476.69c0,9.754,7.901,17.655,17.655,17.655
		h335.448c9.754,0,17.655-7.901,17.655-17.655V17.655C441.379,7.901,433.479,0,423.724,0"/>
	<g>
		<path d="M414.897,35.311c0-4.875-3.952-8.828-8.828-8.828H203.034c-4.875,0-8.828,3.952-8.828,8.828s3.952,8.828,8.828,8.828
			h203.034l-8.828-8.828v300.138c0,4.875,3.952,8.828,8.828,8.828s8.828-3.952,8.828-8.828V35.311z"/>
		<path d="M97.103,476.69c0,4.875,3.952,8.828,8.828,8.828h203.034c4.875,0,8.828-3.952,8.828-8.828s-3.952-8.828-8.828-8.828
			H105.931l8.828,8.828V176.552c0-4.875-3.952-8.828-8.828-8.828c-4.875,0-8.828,3.952-8.828,8.828V476.69z"/>
		<path d="M282.482,326.621L282.482,326.621c0,11.608,2.701,23.058,7.892,33.448l6.568,13.127c1.465,2.94-0.662,6.391-3.946,6.391
			h-73.993c-3.284,0-5.411-3.452-3.946-6.391l6.568-13.127c5.191-10.39,7.892-21.839,7.892-33.448
			c-8.722,6.321-18.803,9.578-29.917,9.578c-32.274,0-60.275-27.101-58.253-59.78c1.13-18.379,12.835-34.145,28.425-43.926
			c15.651-9.825,30.164-10.611,43.14-7.459c-8.298-9.825-13.312-22.502-13.312-36.361c0-34.834,31.576-62.296,67.663-55.314
			c22.59,4.361,40.536,22.925,44.332,45.612c2.948,17.602-2.304,33.986-12.5,46.062c13.074-3.169,27.701-2.348,43.476,7.671
			c15.51,9.852,27.171,25.574,28.239,43.917c1.889,32.591-26.2,59.577-58.403,59.577
			C301.444,336.199,291.045,332.809,282.482,326.621"/>
		<path d="M149.308,31.725c-3.107-6.99-13.027-6.99-16.134,0l-35.31,79.448c-1.98,4.455,0.026,9.672,4.482,11.652
			c4.455,1.98,9.672-0.026,11.652-4.482l35.31-79.448h-16.134l35.31,79.448c1.98,4.455,7.197,6.462,11.652,4.482
			c4.455-1.98,6.462-7.197,4.482-11.652L149.308,31.725z"/>
		<path d="M158.897,97.103c4.875,0,8.828-3.952,8.828-8.828c0-4.875-3.952-8.828-8.828-8.828h-35.31
			c-4.875,0-8.828,3.952-8.828,8.828c0,4.875,3.952,8.828,8.828,8.828H158.897z"/>
		<path d="M362.692,480.275c3.107,6.99,13.027,6.99,16.133,0l35.31-79.448c1.98-4.455-0.026-9.672-4.482-11.652
			c-4.455-1.98-9.672,0.026-11.652,4.482l-35.31,79.448h16.133l-35.31-79.448c-1.98-4.455-7.197-6.462-11.652-4.482
			c-4.455,1.98-6.462,7.197-4.482,11.652L362.692,480.275z"/>
		<path d="M353.103,414.897c-4.875,0-8.828,3.952-8.828,8.828c0,4.875,3.952,8.828,8.828,8.828h35.31
			c4.875,0,8.828-3.952,8.828-8.828c0-4.875-3.952-8.828-8.828-8.828H353.103z"/>
	</g>
</g>
<g>
</g>
<g>
</g>
<g>
</g>
<g>
</g>
<g>
</g>
<g>
</g>
<g>
</g>
<g>
</g>
<g>
</g>
<g>
</g>
<g>
</g>
<g>
</g>
<g>
</g>
<g>
</g>
<g>
</g>
</svg>
